<svg width="512" height="512" viewBox="0 0 512 512" fill="none" xmlns="http://www.w3.org/2000/svg">
<rect width="512" height="512" fill="#1E1E1E"/>
<g clip-path="url(#clip0_0_1)">
<rect width="512" height="512" fill="white"/>
<path d="M157.024 371C145.715 371 134.586 378.226 125.524 384.5C117.946 389.746 111.22 400.822 108.579 409.5C105.253 420.43 104.024 430.559 104.024 442C104.024 446.303 103.615 449.932 106.19 453.667C114.652 465.935 125.429 476.507 134.413 488.389C140.033 495.822 144.978 503.943 153.079 508.5C161.123 513.024 166.373 513 175.524 513C188.927 513 201.121 510.622 211.968 501.944C222.605 493.435 229.598 482.807 235.524 470.5C239.862 461.489 244.746 451.284 245.024 441C245.187 434.954 247.249 430.106 244.246 425C239.916 417.64 233.378 412.723 230.024 404.778C227.909 399.768 225.427 390.753 219.024 390C216.121 389.659 212.947 387.529 210.024 386.778C205.884 385.713 201.849 384.571 197.801 383.222C193.373 381.746 186.614 378 182.024 378C179.962 378 178.866 376.23 177.024 376C175.435 375.801 172.642 374.941 171.024 374.222C166.946 372.41 163.651 371 159.024 371" stroke="#470466" stroke-width="8" stroke-linecap="round"/>
<path d="M372.055 395.913C363.004 402.694 358.43 415.15 354.938 425.604C352.019 434.346 353.277 447.242 356.366 455.771C360.257 466.513 365.346 475.357 372.205 484.514C374.785 487.958 376.634 491.107 380.934 492.552C395.062 497.298 410.026 499.298 424.339 503.421C433.294 506 442.12 509.535 451.336 508.325C460.486 507.123 464.674 503.956 471.997 498.47C482.725 490.434 491.058 481.22 494.537 467.771C497.948 454.584 497.173 441.885 494.537 428.482C492.607 418.67 490.397 407.574 484.453 399.177C480.959 394.24 479.703 389.123 474.238 386.838C466.36 383.543 458.179 383.527 450.731 379.18C446.035 376.439 438.644 370.712 433.068 373.948C430.54 375.415 426.723 375.614 423.933 376.765C419.982 378.395 416.067 379.9 412.019 381.247C407.589 382.721 399.935 383.775 396.26 386.527C394.611 387.763 392.672 387.004 391.06 387.924C389.669 388.718 386.918 389.704 385.192 390.099C380.842 391.093 377.359 391.94 373.656 394.714" stroke="#470466" stroke-width="8" stroke-linecap="round"/>
<path d="M170.024 445C192.131 445 213.775 451.999 235.801 453C241.542 453.261 246.827 456 252.524 456C257.19 456 261.857 456 266.524 456C271.024 456 275.524 456 280.024 456C283.044 456 290.699 457.094 286.801 452.222C281.311 445.359 277.769 434.672 276.024 425.944C274.795 419.799 274.967 407.499 270.246 402.778C267.576 400.108 265.965 396.046 264.968 392.556C263.562 387.633 262.163 380.722 259.801 376C257.926 372.25 258.95 367.834 257.246 364C254.731 358.341 251.024 349.828 251.024 343.5C251.024 335.921 245.024 328.358 245.024 321" stroke="#470466" stroke-width="8" stroke-linecap="round"/>
<path d="M217.024 322C228.688 322 240.046 320 251.801 320C259.876 320 267.95 320 276.024 320" stroke="#470466" stroke-width="8" stroke-linecap="round"/>
<path d="M167.024 445C167.33 442.244 170.54 440.756 172.024 438.778C175.813 433.725 180.993 429.382 185.079 424.444C190.092 418.387 195.495 409.671 201.801 405C203.671 403.615 204.463 401.645 206.524 400.5C214.523 396.056 217.509 388.394 223.024 381.5C226.778 376.807 234.285 367.913 235.024 362C235.662 356.891 244.632 351.783 247.024 347" stroke="#470466" stroke-width="8" stroke-linecap="round"/>
<path d="M248.024 347C275.48 347 303.581 345.475 331.024 347C333.319 347.127 335.969 348.879 338.024 349C340.681 349.156 343.366 348.852 346.024 349C351.359 349.296 356.912 350 362.524 350C371.235 350 386.457 352.783 394.024 349" stroke="#470466" stroke-width="8" stroke-linecap="round"/>
<path d="M393.024 335C393.024 346.011 394.024 357.132 394.024 368C394.024 376.337 399.724 385.688 401.801 394C404.019 402.869 407.516 417.048 414.246 423.778C418.797 428.329 419.439 434.46 422.524 439.944C424.402 443.284 425.772 446.608 427.468 450C428.33 451.724 428.668 455.322 430.024 456" stroke="#470466" stroke-width="8" stroke-linecap="round"/>
<path d="M288.024 455C289.065 449.795 299.16 442.568 303.024 439.056C306.865 435.564 310.618 432.452 314.801 429.556C321.004 425.262 326.753 416.562 331.468 410.5C337.8 402.36 343.026 396.075 351.801 390C356.702 386.608 361.72 382.874 367.024 380.222C371.604 377.932 373.078 373.757 376.524 371C379.636 368.51 383.081 361.955 385.024 358.556C386.245 356.418 389.933 353.045 392.024 352" stroke="#470466" stroke-width="8" stroke-linecap="round"/>
<path d="M391.024 331C393.406 330.735 394.97 329 397.524 329C399.69 329 401.857 329 404.024 329C408.357 329 412.69 329 417.024 329C420.866 329 427.502 327.657 431.024 329.222C434.482 330.759 436.796 334.716 439.024 337.5C443.569 343.182 434.457 354.678 430.579 358.556C427.096 362.039 425.791 363 420.524 363C415.69 363 410.857 363 406.024 363" stroke="#470466" stroke-width="8" stroke-linecap="round"/>
<path d="M15.5 106H34L77.5 212.25H79L122.5 106H141V234H126.5V136.75H125.25L85.25 234H71.25L31.25 136.75H30V234H15.5V106ZM187.578 106V234H172.078V106H187.578ZM218.656 234V106H263.406C272.323 106 279.677 107.542 285.469 110.625C291.26 113.667 295.573 117.771 298.406 122.937C301.24 128.062 302.656 133.75 302.656 140C302.656 145.5 301.677 150.042 299.719 153.625C297.802 157.208 295.26 160.042 292.094 162.125C288.969 164.208 285.573 165.75 281.906 166.75V168C285.823 168.25 289.76 169.625 293.719 172.125C297.677 174.625 300.99 178.208 303.656 182.875C306.323 187.542 307.656 193.25 307.656 200C307.656 206.417 306.198 212.187 303.281 217.312C300.365 222.437 295.76 226.5 289.469 229.5C283.177 232.5 274.99 234 264.906 234H218.656ZM234.156 220.25H264.906C275.031 220.25 282.219 218.292 286.469 214.375C290.76 210.417 292.906 205.625 292.906 200C292.906 195.667 291.802 191.667 289.594 188C287.385 184.292 284.24 181.333 280.156 179.125C276.073 176.875 271.24 175.75 265.656 175.75H234.156V220.25ZM234.156 162.25H262.906C267.573 162.25 271.781 161.333 275.531 159.5C279.323 157.667 282.323 155.083 284.531 151.75C286.781 148.417 287.906 144.5 287.906 140C287.906 134.375 285.948 129.604 282.031 125.687C278.115 121.729 271.906 119.75 263.406 119.75H234.156V162.25ZM333.125 106H351.625L395.125 212.25H396.625L440.125 106H458.625V234H444.125V136.75H442.875L402.875 234H388.875L348.875 136.75H347.625V234H333.125V106Z" fill="#470466"/>
</g>
<defs>
<clipPath id="clip0_0_1">
<rect width="512" height="512" fill="white"/>
</clipPath>
</defs>
</svg>
